<mxfile host="app.diagrams.net" agent="Mozilla/5.0 (Windows NT 10.0; Win64; x64; rv:135.0) Gecko/20100101 Firefox/135.0" version="26.0.14">
  <diagram name="Page-1" id="DJ9Bd-sQTa7z1jEq8QT3">
    <mxGraphModel dx="629" dy="343" grid="1" gridSize="10" guides="1" tooltips="1" connect="1" arrows="1" fold="1" page="1" pageScale="1" pageWidth="850" pageHeight="1100" math="0" shadow="0">
      <root>
        <mxCell id="0" />
        <mxCell id="1" parent="0" />
        <mxCell id="Yrv9Js5HytUDDu1kUCMb-27" value="Empleado" style="swimlane;fontStyle=1;align=center;verticalAlign=top;childLayout=stackLayout;horizontal=1;startSize=26;horizontalStack=0;resizeParent=1;resizeParentMax=0;resizeLast=0;collapsible=1;marginBottom=0;whiteSpace=wrap;html=1;" vertex="1" parent="1">
          <mxGeometry x="310" y="100" width="380" height="200" as="geometry" />
        </mxCell>
        <mxCell id="Yrv9Js5HytUDDu1kUCMb-28" value="&lt;div&gt;- id: int&lt;/div&gt;&lt;div&gt;- salario: double&lt;/div&gt;&lt;div&gt;- horasSemanales: int&lt;/div&gt;&lt;div&gt;&lt;br&gt;&lt;/div&gt;" style="text;strokeColor=none;fillColor=none;align=left;verticalAlign=top;spacingLeft=4;spacingRight=4;overflow=hidden;rotatable=0;points=[[0,0.5],[1,0.5]];portConstraint=eastwest;whiteSpace=wrap;html=1;" vertex="1" parent="Yrv9Js5HytUDDu1kUCMb-27">
          <mxGeometry y="26" width="380" height="54" as="geometry" />
        </mxCell>
        <mxCell id="Yrv9Js5HytUDDu1kUCMb-29" value="" style="line;strokeWidth=1;fillColor=none;align=left;verticalAlign=middle;spacingTop=-1;spacingLeft=3;spacingRight=3;rotatable=0;labelPosition=right;points=[];portConstraint=eastwest;strokeColor=inherit;" vertex="1" parent="Yrv9Js5HytUDDu1kUCMb-27">
          <mxGeometry y="80" width="380" height="8" as="geometry" />
        </mxCell>
        <mxCell id="Yrv9Js5HytUDDu1kUCMb-30" value="&lt;div&gt;+ nuevosDatos(int id,double salario,int horasSemanales): void&lt;/div&gt;&lt;div&gt;+ verDatos(): void&lt;/div&gt;&lt;div&gt;+ darAltaSocial(): void&lt;/div&gt;&lt;div&gt;+ darBajaSocial(): void&lt;/div&gt;&lt;div&gt;+ darAltaEmpresa(): void&lt;/div&gt;&lt;div&gt;+ darBajaEmpresa(): void&lt;/div&gt;&lt;div&gt;&lt;br&gt;&lt;/div&gt;" style="text;strokeColor=none;fillColor=none;align=left;verticalAlign=top;spacingLeft=4;spacingRight=4;overflow=hidden;rotatable=0;points=[[0,0.5],[1,0.5]];portConstraint=eastwest;whiteSpace=wrap;html=1;" vertex="1" parent="Yrv9Js5HytUDDu1kUCMb-27">
          <mxGeometry y="88" width="380" height="112" as="geometry" />
        </mxCell>
      </root>
    </mxGraphModel>
  </diagram>
</mxfile>
